<?xml version="1.0" standalone="no"?>
<svg version="1.2" xmlns="http://www.w3.org/2000/svg" xmlns:xlink="http://www.w3.org/1999/xlink" overflow="visible" preserveAspectRatio="none" viewBox="0 0 29.999990332031032 29.999990922670307" width="29.999990332031032" height="29.999990922670307"><g transform="translate(0, 0)"><g transform="translate(0.000020326802098132035, 0.00030092267030969286) rotate(0)"><path style="stroke-width: 0px; stroke-linecap: butt; stroke-linejoin: miter; fill: rgb(255, 255, 255);" d="M28.54625,15.51933l-2.23229,-2.219c0.03961,-0.14062 0.06124,-0.28863 0.06124,-0.44162v-3.40699c0,-0.32361 -0.26395,-0.58594 -0.58944,-0.58594h-3.9461l-4.156,-8.5354c-0.086,-0.17666 -0.25529,-0.29877 -0.45087,-0.32531c-0.19564,-0.02648 -0.39169,0.04605 -0.52207,0.19336l-4.20109,4.74369l-3.91492,-1.41644c-0.14683,-0.05314 -0.30893,-0.04617 -0.45069,0.01957c-0.14164,0.06568 -0.25134,0.18457 -0.30474,0.33064l-1.17223,3.20144c-0.08093,0.2209 -0.11229,0.45146 -0.09573,0.6791l-0.70238,0.35771c-1.56138,0.79523 -2.75176,2.13568 -3.35176,3.77443l-2.22734,6.08325c-0.43525,1.18857 -0.37878,2.47453 0.15897,3.62097c0.53775,1.14644 1.49242,2.01597 2.68816,2.44857l6.37968,2.30824c0.33663,0.12182 0.68063,0.17994 1.01856,0.17994c1.11169,-0.00006 2.15784,-0.62889 2.65798,-1.68943l1.12755,-2.39097v2.81507c0,2.61111 2.13709,4.73548 4.76383,4.73548h4.77085c2.62674,0 4.76383,-2.12437 4.76383,-4.73548v-2.40375c0.8435,-0.70646 1.38072,-1.76332 1.38072,-2.94293v-0.9092c0.00006,-1.31795 -0.51624,-2.55709 -1.45375,-3.48902zM21.47052,10.03813c0.00088,0 0.00171,-0.00012 0.00259,-0.00012h3.72323v1.0589h-3.28875c-0.32549,0 -0.58944,0.26232 -0.58944,0.58594c0,0.32361 0.26395,0.58594 0.58944,0.58594h3.28875v0.59027c0,0.25846 -0.21149,0.46869 -0.47144,0.46869h-6.50953c-0.26,0 -0.4715,-0.21023 -0.4715,-0.46869v-2.82105h3.72458c0.00071,0 0.00136,0.00012 0.00206,0.00012zM17.00918,1.63527l3.52081,7.23087h-3.37551c-0.32549,0 -0.58944,0.26232 -0.58944,0.58594v3.25025l-0.88865,-1.89445c0.08629,-0.12006 0.15709,-0.2523 0.20919,-0.39475l1.17223,-3.20156c0.11141,-0.30404 -0.04633,-0.64031 -0.35231,-0.751l-3.00635,-1.08773zM7.7747,7.47847l0.28187,-0.7698l3.5886,1.29838c0.06655,0.02408 0.13457,0.03551 0.20153,0.03551c0.24079,0 0.46684,-0.14777 0.5539,-0.38572c0.11141,-0.3041 -0.04633,-0.64031 -0.35231,-0.751l-3.5886,-1.29832l0.28564,-0.77988l7.00302,2.53371l-0.97064,2.65095c-0.04303,0.1176 -0.12962,0.21152 -0.24374,0.26443c-0.11423,0.05291 -0.24203,0.05859 -0.36056,0.01564l-6.1169,-2.21314c-0.1183,-0.04277 -0.21279,-0.12891 -0.26602,-0.24234c-0.05323,-0.1135 -0.05883,-0.2407 -0.0158,-0.35842zM14.32083,19.68869l-2.19497,4.65433c-0.39133,0.8298 -1.33975,1.21887 -2.20594,0.90568l-6.37968,-2.30818c-0.89985,-0.32561 -1.61826,-0.97998 -2.02292,-1.84265c-0.40465,-0.86267 -0.44721,-1.83041 -0.11966,-2.72496l2.22728,-6.08308c0.49796,-1.35996 1.48581,-2.47236 2.78153,-3.1323l0.66442,-0.33838c0.16428,0.15785 0.36127,0.28137 0.58243,0.36141l6.1169,2.21314c0.1842,0.06662 0.37506,0.09984 0.56545,0.09984c0.11547,0 0.23071,-0.01248 0.34418,-0.0368l0.97229,2.07275c0.12319,0.26262 0.22529,0.53619 0.30474,0.81633c-1.05735,1.24283 -1.63606,2.80898 -1.63606,4.44527zM28.82124,19.91785v0c-0.00006,1.47574 -1.20777,2.67627 -2.69229,2.67627h-0.96197c-0.81827,0 -1.48393,-0.6617 -1.48393,-1.4751c0,-0.81334 0.66566,-1.47504 1.48393,-1.47504h1.06065c0.32549,0 0.58944,-0.26238 0.58944,-0.58594c0,-0.32355 -0.26395,-0.58594 -0.58944,-0.58594h-1.06065c-1.46825,0 -2.66282,1.1874 -2.66282,2.64691c0,1.45951 1.19457,2.64697 2.66282,2.64697h0.96197c0.46024,0 0.90173,-0.08062 1.31151,-0.22775v1.72629c0,1.965 -1.60818,3.56361 -3.58494,3.56361h-4.77085c-1.97676,0 -3.58494,-1.59861 -3.58494,-3.56361v-6.4736c0,-1.44721 0.54553,-2.82838 1.53615,-3.8891l0.50851,-0.54457c0.20519,0.09117 0.43212,0.14227 0.67097,0.14227h6.50953c0.32148,0 0.62157,-0.09217 0.87556,-0.2509l2.11222,2.09959c0.71488,0.71057 1.10857,1.65539 1.10857,2.66033z"/></g><defs><path id="path-15911087289411828" d="M28.54625,15.51933l-2.23229,-2.219c0.03961,-0.14062 0.06124,-0.28863 0.06124,-0.44162v-3.40699c0,-0.32361 -0.26395,-0.58594 -0.58944,-0.58594h-3.9461l-4.156,-8.5354c-0.086,-0.17666 -0.25529,-0.29877 -0.45087,-0.32531c-0.19564,-0.02648 -0.39169,0.04605 -0.52207,0.19336l-4.20109,4.74369l-3.91492,-1.41644c-0.14683,-0.05314 -0.30893,-0.04617 -0.45069,0.01957c-0.14164,0.06568 -0.25134,0.18457 -0.30474,0.33064l-1.17223,3.20144c-0.08093,0.2209 -0.11229,0.45146 -0.09573,0.6791l-0.70238,0.35771c-1.56138,0.79523 -2.75176,2.13568 -3.35176,3.77443l-2.22734,6.08325c-0.43525,1.18857 -0.37878,2.47453 0.15897,3.62097c0.53775,1.14644 1.49242,2.01597 2.68816,2.44857l6.37968,2.30824c0.33663,0.12182 0.68063,0.17994 1.01856,0.17994c1.11169,-0.00006 2.15784,-0.62889 2.65798,-1.68943l1.12755,-2.39097v2.81507c0,2.61111 2.13709,4.73548 4.76383,4.73548h4.77085c2.62674,0 4.76383,-2.12437 4.76383,-4.73548v-2.40375c0.8435,-0.70646 1.38072,-1.76332 1.38072,-2.94293v-0.9092c0.00006,-1.31795 -0.51624,-2.55709 -1.45375,-3.48902zM21.47052,10.03813c0.00088,0 0.00171,-0.00012 0.00259,-0.00012h3.72323v1.0589h-3.28875c-0.32549,0 -0.58944,0.26232 -0.58944,0.58594c0,0.32361 0.26395,0.58594 0.58944,0.58594h3.28875v0.59027c0,0.25846 -0.21149,0.46869 -0.47144,0.46869h-6.50953c-0.26,0 -0.4715,-0.21023 -0.4715,-0.46869v-2.82105h3.72458c0.00071,0 0.00136,0.00012 0.00206,0.00012zM17.00918,1.63527l3.52081,7.23087h-3.37551c-0.32549,0 -0.58944,0.26232 -0.58944,0.58594v3.25025l-0.88865,-1.89445c0.08629,-0.12006 0.15709,-0.2523 0.20919,-0.39475l1.17223,-3.20156c0.11141,-0.30404 -0.04633,-0.64031 -0.35231,-0.751l-3.00635,-1.08773zM7.7747,7.47847l0.28187,-0.7698l3.5886,1.29838c0.06655,0.02408 0.13457,0.03551 0.20153,0.03551c0.24079,0 0.46684,-0.14777 0.5539,-0.38572c0.11141,-0.3041 -0.04633,-0.64031 -0.35231,-0.751l-3.5886,-1.29832l0.28564,-0.77988l7.00302,2.53371l-0.97064,2.65095c-0.04303,0.1176 -0.12962,0.21152 -0.24374,0.26443c-0.11423,0.05291 -0.24203,0.05859 -0.36056,0.01564l-6.1169,-2.21314c-0.1183,-0.04277 -0.21279,-0.12891 -0.26602,-0.24234c-0.05323,-0.1135 -0.05883,-0.2407 -0.0158,-0.35842zM14.32083,19.68869l-2.19497,4.65433c-0.39133,0.8298 -1.33975,1.21887 -2.20594,0.90568l-6.37968,-2.30818c-0.89985,-0.32561 -1.61826,-0.97998 -2.02292,-1.84265c-0.40465,-0.86267 -0.44721,-1.83041 -0.11966,-2.72496l2.22728,-6.08308c0.49796,-1.35996 1.48581,-2.47236 2.78153,-3.1323l0.66442,-0.33838c0.16428,0.15785 0.36127,0.28137 0.58243,0.36141l6.1169,2.21314c0.1842,0.06662 0.37506,0.09984 0.56545,0.09984c0.11547,0 0.23071,-0.01248 0.34418,-0.0368l0.97229,2.07275c0.12319,0.26262 0.22529,0.53619 0.30474,0.81633c-1.05735,1.24283 -1.63606,2.80898 -1.63606,4.44527zM28.82124,19.91785v0c-0.00006,1.47574 -1.20777,2.67627 -2.69229,2.67627h-0.96197c-0.81827,0 -1.48393,-0.6617 -1.48393,-1.4751c0,-0.81334 0.66566,-1.47504 1.48393,-1.47504h1.06065c0.32549,0 0.58944,-0.26238 0.58944,-0.58594c0,-0.32355 -0.26395,-0.58594 -0.58944,-0.58594h-1.06065c-1.46825,0 -2.66282,1.1874 -2.66282,2.64691c0,1.45951 1.19457,2.64697 2.66282,2.64697h0.96197c0.46024,0 0.90173,-0.08062 1.31151,-0.22775v1.72629c0,1.965 -1.60818,3.56361 -3.58494,3.56361h-4.77085c-1.97676,0 -3.58494,-1.59861 -3.58494,-3.56361v-6.4736c0,-1.44721 0.54553,-2.82838 1.53615,-3.8891l0.50851,-0.54457c0.20519,0.09117 0.43212,0.14227 0.67097,0.14227h6.50953c0.32148,0 0.62157,-0.09217 0.87556,-0.2509l2.11222,2.09959c0.71488,0.71057 1.10857,1.65539 1.10857,2.66033z"/></defs></g></svg>
