<?xml version="1.0" standalone="no"?>
<svg version="1.2" xmlns="http://www.w3.org/2000/svg" xmlns:xlink="http://www.w3.org/1999/xlink" overflow="visible" preserveAspectRatio="none" viewBox="0 0 26.00004 23.999990000000004" width="26.00004" height="23.999990000000004"><g transform="translate(0, 0)"><g transform="translate(0.000019999999997910578, 0) rotate(0)"><path style="stroke-width: 0px; stroke-linecap: butt; stroke-linejoin: miter; fill: rgb(255, 255, 255);" d="M26.00002,5.73411l-6.212,-5.73411l-2.36856,2.18636l-1.55704,-1.43727l-3.80196,3.5095l2.95865,2.73107l-7.447,6.87416l-2.95865,-2.73107l-3.80196,3.5095l1.55704,1.43727l-2.36856,2.18636l6.21195,5.73411l2.36856,-2.18636l1.55704,1.43727l3.80196,-3.5095l-2.95865,-2.73107l7.447,-6.87416l2.95865,2.73107l3.80196,-3.5095l-1.55704,-1.43727zM19.78804,1.99847l4.047,3.7357l-1.28608,1.18715l-4.047,-3.7357zM6.21195,22.0016l-4.047,-3.7357l1.28608,-1.18715l4.047,3.7357zM10.1376,21.25251l-7.16108,-6.61024l1.63695,-1.51104l7.16103,6.61019zM9.89838,16.01114l-1.24373,-1.14806l7.447,-6.87416l1.24373,1.14806zM21.38651,10.86884l-7.16103,-6.61024l1.63695,-1.51104l7.16103,6.61019z"/></g><defs><path id="path-1591108723446241" d="M26.00002,5.73411l-6.212,-5.73411l-2.36856,2.18636l-1.55704,-1.43727l-3.80196,3.5095l2.95865,2.73107l-7.447,6.87416l-2.95865,-2.73107l-3.80196,3.5095l1.55704,1.43727l-2.36856,2.18636l6.21195,5.73411l2.36856,-2.18636l1.55704,1.43727l3.80196,-3.5095l-2.95865,-2.73107l7.447,-6.87416l2.95865,2.73107l3.80196,-3.5095l-1.55704,-1.43727zM19.78804,1.99847l4.047,3.7357l-1.28608,1.18715l-4.047,-3.7357zM6.21195,22.0016l-4.047,-3.7357l1.28608,-1.18715l4.047,3.7357zM10.1376,21.25251l-7.16108,-6.61024l1.63695,-1.51104l7.16103,6.61019zM9.89838,16.01114l-1.24373,-1.14806l7.447,-6.87416l1.24373,1.14806zM21.38651,10.86884l-7.16103,-6.61024l1.63695,-1.51104l7.16103,6.61019z"/></defs></g></svg>