<?xml version="1.0" standalone="no"?>
<svg version="1.2" xmlns="http://www.w3.org/2000/svg" xmlns:xlink="http://www.w3.org/1999/xlink" overflow="visible" preserveAspectRatio="none" viewBox="0 0 35.00001 35.00002000000001" width="35.00001" height="35.00002000000001"><g transform="translate(0, 0)"><g transform="translate(-0.0000299999999985312, 0.0009400000000092668) rotate(0)"><path style="stroke-width: 0px; stroke-linecap: butt; stroke-linejoin: miter; fill: rgb(255, 255, 255);" d="M34.48731,33.97374h-4.42107c-0.19161,-0.71627 -0.77424,-1.29213 -1.52421,-1.45121l-1.28536,-0.27255l-0.54776,-1.07543l-1.83039,-3.89506c-0.28205,-0.59992 -1.20989,-0.16386 -0.92805,0.43613l1.49707,3.1857l-1.10756,0.02017l-6.42838,-8.62521c-0.202,-0.27098 -0.62084,-0.27091 -0.82277,0l-6.42838,8.62521l-1.10749,-0.02017l5.2014,-11.06859h2.73096h0.02987h2.73096l2.5861,5.50322c0.27508,0.5853 1.20928,0.16249 0.92805,-0.43613l-2.67654,-5.69566v-2.48583v-2.67826h9.80212c1.44792,0 2.62589,-1.17743 2.62589,-2.62467c0,-0.28315 -0.22955,-0.5127 -0.5127,-0.5127h-12.76871c-0.20385,-0.24104 -0.43948,-0.45589 -0.70205,-0.63725c0.62152,-0.58297 1.0109,-1.4106 1.0109,-2.32785c0,-0.83706 0,-1.67413 0,-2.51119c0,-0.89859 -0.35807,-1.71466 -0.93823,-2.31486c0.07766,-0.23782 0.11888,-0.48802 0.11888,-0.73904c0,-1.30875 -1.06518,-2.37345 -2.37446,-2.37345c-1.30929,0 -2.37446,1.0647 -2.37446,2.37345c0,0.17671 0.02051,0.35144 0.05893,0.5222c-0.62487,0.53587 -1.05062,1.30136 -1.14406,2.17883c-0.04464,0.41932 0.051,0.82852 0.26585,1.17538v1.68876c0,0.98411 0.44775,1.8654 1.15028,2.45158c-0.19599,0.15306 -0.37475,0.32532 -0.53382,0.51359h-6.62102c-0.66288,0 -0.66288,1.02539 0,1.02539h6.01228c-0.13412,0.34522 -0.21561,0.71272 -0.23693,1.09054l-9.80827,-0.0041c-0.70314,0 -1.30184,-0.45541 -1.51614,-1.08658h2.78168c0.66288,0 0.66288,-1.02539 0,-1.02539h-3.37873c-0.28314,0 -0.5127,0.22955 -0.5127,0.5127c0,1.44724 1.17797,2.62467 2.62568,2.62467l9.80232,0.00396v2.67423v2.4872l-5.62454,11.96902l-0.54776,1.07543l-1.28536,0.27255c-0.7499,0.15907 -1.33253,0.73493 -1.52414,1.45121h-4.42176c-0.28314,0 -0.5127,0.22955 -0.5127,0.5127c0,0.28315 0.22955,0.5127 0.5127,0.5127h33.97461c0.28314,0 0.5127,-0.22955 0.5127,-0.5127c0,-0.28315 -0.22955,-0.51263 -0.5127,-0.51263zM17.50029,23.46161l6.17135,8.2804l0.79789,1.1237c-0.02242,0.3418 -0.01969,0.79379 0.09734,1.10948h-14.13316c0.1171,-0.31568 0.11977,-0.76761 0.09734,-1.10948l0.79789,-1.1237zM17.51527,18.80871h-0.02987h-2.54379v-1.57631h5.11684v1.57631zM32.40202,11.92954c-0.21431,0.63116 -0.813,1.08658 -1.51614,1.08658h-9.80855c-0.02167,-0.37707 -0.10315,-0.74314 -0.2368,-1.08658zM17.34539,1.02584c0.74389,0 1.34907,0.60478 1.34907,1.34805c0,0.02393 -0.00082,0.04772 -0.00205,0.07137c-0.44864,-0.22477 -0.9543,-0.35205 -1.48935,-0.35205c-0.42362,0 -0.82975,0.07889 -1.20388,0.22306c0.03056,-0.71648 0.62173,-1.29043 1.3462,-1.29043zM14.90537,5.1834c0.1253,-1.17708 1.11316,-2.0648 2.29776,-2.0648c1.27415,0 2.31068,1.03585 2.31068,2.30919v0.03507l-3.62612,0.63732c-0.54305,0.09557 -1.04077,-0.36812 -0.98232,-0.91677zM15.17696,7.05222c0.29367,0.09126 0.5898,0.11061 0.88826,0.05797l3.44859,-0.60614v1.43501c0,1.1952 -0.97234,2.16755 -2.16932,2.16755c-1.1952,0 -2.16754,-0.97235 -2.16754,-2.16755zM17.34628,11.13199c0.42971,0 0.83966,-0.08586 1.2142,-0.24049c0.90241,0.412 1.49796,1.32638 1.49796,2.3271v0.00068v2.98766h-5.11684v-2.98766v-0.00068c0,-0.94569 0.5332,-1.82069 1.36575,-2.26079c0.32594,0.11238 0.67519,0.17418 1.03893,0.17418zM6.03834,33.97519c0.13788,-0.22367 0.36333,-0.39095 0.63294,-0.4481l1.52476,-0.32334c0.15142,-0.03213 0.28027,-0.13091 0.35048,-0.26886l0.50012,-0.98192h0.87486c-0.1547,0.1694 -0.4159,0.506 -0.4159,0.74922v0.72906c0,0.29996 -0.24425,0.54401 -0.54455,0.54401h-2.92271zM26.03954,33.97519c-0.3003,0 -0.54455,-0.24404 -0.54455,-0.54401c0.06617,-0.56014 -0.02912,-1.05465 -0.4159,-1.47828h0.87486l0.50012,0.98192c0.07027,0.13795 0.19906,0.23673 0.35048,0.26886l1.52476,0.32334c0.26968,0.05715 0.49513,0.22442 0.63294,0.4481h-2.92271z"/></g><defs><path id="path-15911087292891991" d="M34.48731,33.97374h-4.42107c-0.19161,-0.71627 -0.77424,-1.29213 -1.52421,-1.45121l-1.28536,-0.27255l-0.54776,-1.07543l-1.83039,-3.89506c-0.28205,-0.59992 -1.20989,-0.16386 -0.92805,0.43613l1.49707,3.1857l-1.10756,0.02017l-6.42838,-8.62521c-0.202,-0.27098 -0.62084,-0.27091 -0.82277,0l-6.42838,8.62521l-1.10749,-0.02017l5.2014,-11.06859h2.73096h0.02987h2.73096l2.5861,5.50322c0.27508,0.5853 1.20928,0.16249 0.92805,-0.43613l-2.67654,-5.69566v-2.48583v-2.67826h9.80212c1.44792,0 2.62589,-1.17743 2.62589,-2.62467c0,-0.28315 -0.22955,-0.5127 -0.5127,-0.5127h-12.76871c-0.20385,-0.24104 -0.43948,-0.45589 -0.70205,-0.63725c0.62152,-0.58297 1.0109,-1.4106 1.0109,-2.32785c0,-0.83706 0,-1.67413 0,-2.51119c0,-0.89859 -0.35807,-1.71466 -0.93823,-2.31486c0.07766,-0.23782 0.11888,-0.48802 0.11888,-0.73904c0,-1.30875 -1.06518,-2.37345 -2.37446,-2.37345c-1.30929,0 -2.37446,1.0647 -2.37446,2.37345c0,0.17671 0.02051,0.35144 0.05893,0.5222c-0.62487,0.53587 -1.05062,1.30136 -1.14406,2.17883c-0.04464,0.41932 0.051,0.82852 0.26585,1.17538v1.68876c0,0.98411 0.44775,1.8654 1.15028,2.45158c-0.19599,0.15306 -0.37475,0.32532 -0.53382,0.51359h-6.62102c-0.66288,0 -0.66288,1.02539 0,1.02539h6.01228c-0.13412,0.34522 -0.21561,0.71272 -0.23693,1.09054l-9.80827,-0.0041c-0.70314,0 -1.30184,-0.45541 -1.51614,-1.08658h2.78168c0.66288,0 0.66288,-1.02539 0,-1.02539h-3.37873c-0.28314,0 -0.5127,0.22955 -0.5127,0.5127c0,1.44724 1.17797,2.62467 2.62568,2.62467l9.80232,0.00396v2.67423v2.4872l-5.62454,11.96902l-0.54776,1.07543l-1.28536,0.27255c-0.7499,0.15907 -1.33253,0.73493 -1.52414,1.45121h-4.42176c-0.28314,0 -0.5127,0.22955 -0.5127,0.5127c0,0.28315 0.22955,0.5127 0.5127,0.5127h33.97461c0.28314,0 0.5127,-0.22955 0.5127,-0.5127c0,-0.28315 -0.22955,-0.51263 -0.5127,-0.51263zM17.50029,23.46161l6.17135,8.2804l0.79789,1.1237c-0.02242,0.3418 -0.01969,0.79379 0.09734,1.10948h-14.13316c0.1171,-0.31568 0.11977,-0.76761 0.09734,-1.10948l0.79789,-1.1237zM17.51527,18.80871h-0.02987h-2.54379v-1.57631h5.11684v1.57631zM32.40202,11.92954c-0.21431,0.63116 -0.813,1.08658 -1.51614,1.08658h-9.80855c-0.02167,-0.37707 -0.10315,-0.74314 -0.2368,-1.08658zM17.34539,1.02584c0.74389,0 1.34907,0.60478 1.34907,1.34805c0,0.02393 -0.00082,0.04772 -0.00205,0.07137c-0.44864,-0.22477 -0.9543,-0.35205 -1.48935,-0.35205c-0.42362,0 -0.82975,0.07889 -1.20388,0.22306c0.03056,-0.71648 0.62173,-1.29043 1.3462,-1.29043zM14.90537,5.1834c0.1253,-1.17708 1.11316,-2.0648 2.29776,-2.0648c1.27415,0 2.31068,1.03585 2.31068,2.30919v0.03507l-3.62612,0.63732c-0.54305,0.09557 -1.04077,-0.36812 -0.98232,-0.91677zM15.17696,7.05222c0.29367,0.09126 0.5898,0.11061 0.88826,0.05797l3.44859,-0.60614v1.43501c0,1.1952 -0.97234,2.16755 -2.16932,2.16755c-1.1952,0 -2.16754,-0.97235 -2.16754,-2.16755zM17.34628,11.13199c0.42971,0 0.83966,-0.08586 1.2142,-0.24049c0.90241,0.412 1.49796,1.32638 1.49796,2.3271v0.00068v2.98766h-5.11684v-2.98766v-0.00068c0,-0.94569 0.5332,-1.82069 1.36575,-2.26079c0.32594,0.11238 0.67519,0.17418 1.03893,0.17418zM6.03834,33.97519c0.13788,-0.22367 0.36333,-0.39095 0.63294,-0.4481l1.52476,-0.32334c0.15142,-0.03213 0.28027,-0.13091 0.35048,-0.26886l0.50012,-0.98192h0.87486c-0.1547,0.1694 -0.4159,0.506 -0.4159,0.74922v0.72906c0,0.29996 -0.24425,0.54401 -0.54455,0.54401h-2.92271zM26.03954,33.97519c-0.3003,0 -0.54455,-0.24404 -0.54455,-0.54401c0.06617,-0.56014 -0.02912,-1.05465 -0.4159,-1.47828h0.87486l0.50012,0.98192c0.07027,0.13795 0.19906,0.23673 0.35048,0.26886l1.52476,0.32334c0.26968,0.05715 0.49513,0.22442 0.63294,0.4481h-2.92271z"/></defs></g></svg>