<?xml version="1.0" encoding="UTF-8" standalone="no"?>
<svg
   xmlns:dc="http://purl.org/dc/elements/1.1/"
   xmlns:cc="http://creativecommons.org/ns#"
   xmlns:rdf="http://www.w3.org/1999/02/22-rdf-syntax-ns#"
   xmlns:svg="http://www.w3.org/2000/svg"
   xmlns="http://www.w3.org/2000/svg"
   xmlns:sodipodi="http://sodipodi.sourceforge.net/DTD/sodipodi-0.dtd"
   xmlns:inkscape="http://www.inkscape.org/namespaces/inkscape"
   sodipodi:docname="cadre.svg"
   inkscape:version="1.0 (6e3e5246a0, 2020-05-07)"
   id="svg926"
   version="1.1"
   viewBox="0 0 88.162689 97.469681">
  <defs
     id="defs920">
    <clipPath
       clipPathUnits="userSpaceOnUse"
       id="clipPath849">
      <path
         style="display:none;fill:none;stroke:#000000;stroke-width:0.264583px;stroke-linecap:butt;stroke-linejoin:miter;stroke-opacity:1"
         d="m 50.537123,77.08165 c 1.170541,-0.981551 2.522985,-8.390176 2.522985,-8.390176 0,0 2.570165,1.221849 3.644193,1.221849 1.074029,0 1.298173,0.129259 2.024113,-1.217372 0.725937,-1.346634 0.658424,-0.890797 1.396545,-2.920434 0.738119,-2.02964 5.282605,-2.690762 6.157328,-1.627047 0.874718,1.063715 5.680871,4.276548 9.629833,3.681553 3.948962,-0.594993 7.33964,-3.803373 8.225348,-4.146527 0.885709,-0.343151 7.703791,2.550626 9.248484,3.198001 1.544693,0.647374 5.142246,0.136006 8.365208,-2.502652 3.22296,-2.638658 9.59699,-2.10263 12.02827,-4.533897 2.43127,-2.431267 8.60155,2.427634 9.80872,4.201774 1.20718,1.774137 -2.43826,4.975169 3.98019,4.032652 6.41844,-0.942517 9.60237,-3.370493 11.81836,-4.26357 2.216,-0.89308 6.70396,5.875978 6.70396,5.875978 0,0 -4.27085,3.785875 -0.53331,5.255564 3.73755,1.469684 7.45357,2.409989 9.48372,0.56882 2.03016,-1.841169 7.63969,6.221415 7.63969,6.221415 0,0 0.1945,2.76919 0.55662,5.097878 0.36212,2.328696 0.62344,4.118417 2.30786,7.487248 1.68442,3.368831 6.24548,8.938773 6.79387,11.103123 0.5484,2.16434 -3.48154,6.47399 -5.49175,4.63678 -2.01021,-1.83721 -4.57297,-0.83755 -4.57297,0.59132 0,1.42888 2.85547,4.07312 5.12321,6.71888 2.26774,2.64575 6.60366,8.54975 3.02369,10.01258 -3.57996,1.46284 -14.13881,22.62668 -10.30469,25.73844 3.83411,3.11176 6.81431,11.42936 6.81431,11.42936 0,0 7.23846,14.59843 1.02609,11.02713 -6.21238,-3.5713 -6.40136,-9.9235 -6.40136,-3.93161 0,5.99189 1.51474,11.13822 2.06403,12.80376 0.54929,1.66554 5.44473,13.03235 5.44473,13.03235 0,0 7.7186,19.10494 -21.98034,11.61371 -29.69895,-7.49123 -33.52824,-5.45439 -33.52824,-4.18971 0,1.26467 18.17388,4.87729 6.14163,6.51179 -12.03225,1.6345 -10.20873,3.58752 -17.83178,0.6373 -7.623055,-2.95023 -8.014784,-5.97614 -11.162066,-9.27949 -3.147285,-3.30335 -19.616441,-3.16165 -22.451264,-0.51582 -2.834823,2.64584 -2.886475,5.84056 -8.098073,2.64584 -5.211596,-3.19473 -8.478157,-4.98959 -7.007807,-9.27675 1.47035,-4.28716 4.647181,1.73078 1.281361,-8.82843 -3.36582,-10.5592 -6.068406,-31.34618 -6.068406,-31.34618 l 15.977081,1.08374 c 0,0 -6.196272,-12.75895 -6.196272,-15.86072 0,-3.10176 2.386719,-0.82393 -0.767479,-9.06166 -3.154201,-8.23772 -5.388123,-11.25045 -5.57711,-12.57568 -0.188989,-1.32523 6.279055,-21.297051 6.279055,-22.318004 0,-1.020956 -7.001158,-8.051279 -7.565753,-10.77504 -0.564594,-2.723756 -1.60837,-5.202507 0.02819,-8.868066 z"
         id="path851"
         clip-path="none" />
      <path
         id="lpe_path-effect853"
         style="fill:none;stroke:#000000;stroke-width:0.264583px;stroke-linecap:butt;stroke-linejoin:miter;stroke-opacity:1"
         class="powerclip"
         d="M 27.089457,35.602896 H 196.53015 V 229.63435 H 27.089457 Z M 50.537123,77.08165 h 4e-6 c -1.63656,3.665559 -0.592784,6.14431 -0.02819,8.868066 0.564595,2.723761 7.565753,9.754084 7.565753,10.77504 0,1.020953 -6.468044,20.992774 -6.279055,22.318004 0.188987,1.32523 2.422909,4.33796 5.57711,12.57568 3.154198,8.23773 0.767479,5.9599 0.767479,9.06166 0,3.10177 6.196272,15.86072 6.196272,15.86072 l -15.977081,-1.08374 c 0,0 2.702586,20.78698 6.068406,31.34618 3.36582,10.55921 0.188989,4.54127 -1.281361,8.82843 -1.47035,4.28716 1.796211,6.08202 7.007807,9.27675 5.211598,3.19472 5.26325,0 8.098073,-2.64584 2.834823,-2.64583 19.303979,-2.78753 22.451264,0.51582 3.147282,3.30335 3.539011,6.32926 11.162066,9.27949 7.62305,2.95022 5.79953,0.9972 17.83178,-0.6373 12.03225,-1.6345 -6.14163,-5.24712 -6.14163,-6.51179 0,-1.26468 3.82929,-3.30152 33.52824,4.18971 29.69894,7.49123 21.98034,-11.61371 21.98034,-11.61371 0,0 -4.89544,-11.36681 -5.44473,-13.03235 -0.54929,-1.66554 -2.06403,-6.81187 -2.06403,-12.80376 0,-5.99189 0.18898,0.36031 6.40136,3.93161 6.21237,3.5713 -1.02609,-11.02713 -1.02609,-11.02713 0,0 -2.9802,-8.3176 -6.81431,-11.42936 -3.83412,-3.11176 6.72473,-24.2756 10.30469,-25.73844 3.57997,-1.46283 -0.75595,-7.36683 -3.02369,-10.01258 -2.26774,-2.64576 -5.12321,-5.29 -5.12321,-6.71888 0,-1.42887 2.56276,-2.42853 4.57297,-0.59132 2.01021,1.83721 6.04015,-2.47244 5.49175,-4.63678 -0.54839,-2.16435 -5.10945,-7.734292 -6.79387,-11.103123 -1.68442,-3.368831 -1.94574,-5.158552 -2.30786,-7.487248 -0.36212,-2.328688 -0.55662,-5.097878 -0.55662,-5.097878 0,0 -5.60953,-8.062584 -7.63969,-6.221415 -2.03015,1.841169 -5.74617,0.900864 -9.48372,-0.56882 -3.73754,-1.469689 0.53331,-5.255564 0.53331,-5.255564 0,0 -4.48796,-6.769058 -6.70396,-5.875978 -2.21599,0.893077 -5.39992,3.321053 -11.81836,4.26357 -6.41845,0.942517 -2.77301,-2.258515 -3.98019,-4.032652 -1.20717,-1.77414 -7.37745,-6.633041 -9.80872,-4.201774 -2.43128,2.431267 -8.80531,1.895239 -12.02827,4.533897 -3.222962,2.638658 -6.820515,3.150026 -8.365208,2.502652 -1.544693,-0.647375 -8.362775,-3.541152 -9.248484,-3.198001 -0.885708,0.343154 -4.276386,3.551534 -8.225348,4.146527 -3.948962,0.594995 -8.755115,-2.617838 -9.629833,-3.681553 -0.874723,-1.063715 -5.419209,-0.402593 -6.157328,1.627047 -0.738121,2.029637 -0.670608,1.5738 -1.396545,2.920434 -0.72594,1.346631 -0.950084,1.217372 -2.024113,1.217372 -1.074028,0 -3.644193,-1.221849 -3.644193,-1.221849 0,0 -1.352444,7.408625 -2.522985,8.390176 z" />
    </clipPath>
    <inkscape:path-effect
       effect="powerclip"
       id="path-effect853"
       is_visible="true"
       lpeversion="1"
       inverse="true"
       flatten="false"
       hide_clip="false"
       message="Utilise la règle de remplissage « fill-rule: evenodd » de la boîte de dialogue &lt;b&gt;Fond et contour&lt;/b&gt; en l'absence de résultat de mise à plat après une conversion en chemin." />
  </defs>
  <sodipodi:namedview
     fit-margin-bottom="0"
     fit-margin-right="0"
     fit-margin-left="0"
     fit-margin-top="0"
     lock-margins="true"
     inkscape:window-maximized="1"
     inkscape:window-y="30"
     inkscape:window-x="0"
     inkscape:window-height="1026"
     inkscape:window-width="1680"
     showgrid="false"
     inkscape:document-rotation="0"
     inkscape:current-layer="layer1"
     inkscape:document-units="mm"
     inkscape:cy="184.19467"
     inkscape:cx="782.32094"
     inkscape:zoom="0.35"
     inkscape:pageshadow="2"
     inkscape:pageopacity="0.0"
     borderopacity="1.0"
     bordercolor="#666666"
     pagecolor="#ffffff"
     id="base" />
  <metadata
     id="metadata923">
    <rdf:RDF>
      <cc:Work
         rdf:about="">
        <dc:format>image/svg+xml</dc:format>
        <dc:type
           rdf:resource="http://purl.org/dc/dcmitype/StillImage" />
        <dc:title></dc:title>
      </cc:Work>
    </rdf:RDF>
  </metadata>
  <g
     transform="translate(-61.75199,-99.431828)"
     id="layer1"
     inkscape:groupmode="layer"
     inkscape:label="Calque 1">
    <path
       d="M 33.071957,41.585396 H 190.54765 V 223.65185 H 33.071957 Z"
       style="font-variation-settings:normal;opacity:1;vector-effect:none;fill:#ffffff;fill-opacity:1;fill-rule:evenodd;stroke:#ffffff;stroke-width:1.965;stroke-linecap:butt;stroke-linejoin:miter;stroke-miterlimit:4;stroke-dasharray:none;stroke-dashoffset:0;stroke-opacity:1;stop-color:#000000;stop-opacity:1"
       id="rect835"
       width="157.47569"
       height="182.06645"
       x="33.071957"
       y="41.585396"
       clip-path="url(#clipPath849)"
       inkscape:path-effect="#path-effect853"
       sodipodi:type="rect"
       transform="matrix(0.55294972,0,0,0.52963598,44.008134,77.927073)" />
  </g>
</svg>
