<?xml version="1.0" standalone="no"?>
<svg version="1.2" xmlns="http://www.w3.org/2000/svg" xmlns:xlink="http://www.w3.org/1999/xlink" overflow="visible" preserveAspectRatio="none" viewBox="0 0 36.000019999999985 20.99999" width="36.000019999999985" height="20.99999"><g transform="translate(0, 0)"><g transform="translate(0.0000024516786117379023, -0.000013928003153229721) rotate(-35.01677392793948)"><path style="stroke-width: 0px; stroke-linecap: butt; stroke-linejoin: miter; fill: rgb(255, 255, 255);" d="M34.76953,7.19702h-0.87891v-3.51159c0,-0.82435 -0.67816,-1.49503 -1.51172,-1.49503h-2.25c-0.15926,0 -0.31275,0.02482 -0.45703,0.07023v-0.2093c0,-1.13108 -0.93052,-2.05132 -2.07422,-2.05132h-2.8125c-1.1437,0 -2.07422,0.92025 -2.07422,2.05132v6.13944h-9.42187v-6.13944c0,-1.13108 -0.93052,-2.05132 -2.07422,-2.05132h-2.8125c-1.1437,0 -2.07422,0.92025 -2.07422,2.05132v0.2093c-0.14428,-0.04541 -0.29777,-0.07023 -0.45703,-0.07023h-2.25c-0.83355,0 -1.51172,0.67068 -1.51172,1.49503v0.6736c0,0.28802 0.23611,0.52152 0.52734,0.52152c0.29123,0 0.52734,-0.2335 0.52734,-0.52152v-0.6736c0,-0.24922 0.20503,-0.45199 0.45703,-0.45199h2.25c0.252,0 0.45703,0.20277 0.45703,0.45199v13.62914c0,0.24922 -0.20503,0.45199 -0.45703,0.45199h-2.25c-0.252,0 -0.45703,-0.20277 -0.45703,-0.45199v-10.72398c0,-0.28802 -0.23611,-0.52152 -0.52734,-0.52152c-0.29123,0 -0.52734,0.2335 -0.52734,0.52152v0.60643h-0.87891c-0.67845,0 -1.23047,0.54593 -1.23047,1.21689v4.17219c0,0.67096 0.55202,1.21689 1.23047,1.21689h0.87891v3.51159c0,0.82435 0.67816,1.49503 1.51172,1.49503h2.25c0.15926,0 0.31275,-0.02482 0.45703,-0.07023v0.2093c0,1.13108 0.93052,2.05132 2.07422,2.05132h2.8125c1.1437,0 2.07422,-0.92025 2.07422,-2.05132v-6.13944h0.76753c0.29123,0 0.52734,-0.2335 0.52734,-0.52152c0,-0.28802 -0.23611,-0.52152 -0.52734,-0.52152h-0.76753v-2.53238h9.42188v2.53238h-6.36834c-0.29123,0 -0.52734,0.2335 -0.52734,0.52152c0,0.28802 0.23611,0.52152 0.52734,0.52152h6.36834v6.13944c0,1.13108 0.93052,2.05132 2.07422,2.05132h2.8125c1.1437,0 2.07422,-0.92025 2.07422,-2.05132v-0.2093c0.14428,0.04541 0.29777,0.07023 0.45703,0.07023h2.25c0.83355,0 1.51172,-0.67068 1.51172,-1.49503v-0.70426c0,-0.28802 -0.23611,-0.52152 -0.52734,-0.52152c-0.29123,0 -0.52734,0.2335 -0.52734,0.52152v0.70426c0,0.24922 -0.20503,0.45199 -0.45703,0.45199h-2.25c-0.252,0 -0.45703,-0.20277 -0.45703,-0.45199v-13.62914c0,-0.24922 0.20503,-0.45199 0.45703,-0.45199h2.25c0.252,0 0.45703,0.20277 0.45703,0.45199v10.67384c0,0.28802 0.23611,0.52152 0.52734,0.52152c0.29123,0 0.52734,-0.2335 0.52734,-0.52152v-0.55629h0.87891c0.67845,0 1.23047,-0.54593 1.23047,-1.21689v-4.17219c0,-0.67096 -0.55202,-1.21689 -1.23047,-1.21689zM1.23047,12.75993c-0.09689,0 -0.17578,-0.07802 -0.17578,-0.17384v-4.17219c0,-0.09582 0.07889,-0.17384 0.17578,-0.17384h0.87891v4.51987zM12.23438,18.94868c0,0.55594 -0.45738,1.00828 -1.01953,1.00828h-2.8125c-0.56215,0 -1.01953,-0.45233 -1.01953,-1.00828v-16.89735c0,-0.55594 0.45738,-1.00828 1.01953,-1.00828h2.8125c0.56215,0 1.01953,0.45233 1.01953,1.00828zM28.61719,18.94868c0,0.55594 -0.45738,1.00828 -1.01953,1.00828h-2.8125c-0.56215,0 -1.01953,-0.45233 -1.01953,-1.00828v-16.89735c0,-0.55594 0.45738,-1.00828 1.01953,-1.00828h2.8125c0.56215,0 1.01953,0.45233 1.01953,1.00828zM34.94531,12.58609c0,0.09582 -0.07889,0.17384 -0.17578,0.17384h-0.87891v-4.51987h0.87891c0.09689,0 0.17578,0.07802 0.17578,0.17384z"/></g><defs><path id="path-159110872310597" d="M34.76953,7.19702h-0.87891v-3.51159c0,-0.82435 -0.67816,-1.49503 -1.51172,-1.49503h-2.25c-0.15926,0 -0.31275,0.02482 -0.45703,0.07023v-0.2093c0,-1.13108 -0.93052,-2.05132 -2.07422,-2.05132h-2.8125c-1.1437,0 -2.07422,0.92025 -2.07422,2.05132v6.13944h-9.42187v-6.13944c0,-1.13108 -0.93052,-2.05132 -2.07422,-2.05132h-2.8125c-1.1437,0 -2.07422,0.92025 -2.07422,2.05132v0.2093c-0.14428,-0.04541 -0.29777,-0.07023 -0.45703,-0.07023h-2.25c-0.83355,0 -1.51172,0.67068 -1.51172,1.49503v0.6736c0,0.28802 0.23611,0.52152 0.52734,0.52152c0.29123,0 0.52734,-0.2335 0.52734,-0.52152v-0.6736c0,-0.24922 0.20503,-0.45199 0.45703,-0.45199h2.25c0.252,0 0.45703,0.20277 0.45703,0.45199v13.62914c0,0.24922 -0.20503,0.45199 -0.45703,0.45199h-2.25c-0.252,0 -0.45703,-0.20277 -0.45703,-0.45199v-10.72398c0,-0.28802 -0.23611,-0.52152 -0.52734,-0.52152c-0.29123,0 -0.52734,0.2335 -0.52734,0.52152v0.60643h-0.87891c-0.67845,0 -1.23047,0.54593 -1.23047,1.21689v4.17219c0,0.67096 0.55202,1.21689 1.23047,1.21689h0.87891v3.51159c0,0.82435 0.67816,1.49503 1.51172,1.49503h2.25c0.15926,0 0.31275,-0.02482 0.45703,-0.07023v0.2093c0,1.13108 0.93052,2.05132 2.07422,2.05132h2.8125c1.1437,0 2.07422,-0.92025 2.07422,-2.05132v-6.13944h0.76753c0.29123,0 0.52734,-0.2335 0.52734,-0.52152c0,-0.28802 -0.23611,-0.52152 -0.52734,-0.52152h-0.76753v-2.53238h9.42188v2.53238h-6.36834c-0.29123,0 -0.52734,0.2335 -0.52734,0.52152c0,0.28802 0.23611,0.52152 0.52734,0.52152h6.36834v6.13944c0,1.13108 0.93052,2.05132 2.07422,2.05132h2.8125c1.1437,0 2.07422,-0.92025 2.07422,-2.05132v-0.2093c0.14428,0.04541 0.29777,0.07023 0.45703,0.07023h2.25c0.83355,0 1.51172,-0.67068 1.51172,-1.49503v-0.70426c0,-0.28802 -0.23611,-0.52152 -0.52734,-0.52152c-0.29123,0 -0.52734,0.2335 -0.52734,0.52152v0.70426c0,0.24922 -0.20503,0.45199 -0.45703,0.45199h-2.25c-0.252,0 -0.45703,-0.20277 -0.45703,-0.45199v-13.62914c0,-0.24922 0.20503,-0.45199 0.45703,-0.45199h2.25c0.252,0 0.45703,0.20277 0.45703,0.45199v10.67384c0,0.28802 0.23611,0.52152 0.52734,0.52152c0.29123,0 0.52734,-0.2335 0.52734,-0.52152v-0.55629h0.87891c0.67845,0 1.23047,-0.54593 1.23047,-1.21689v-4.17219c0,-0.67096 -0.55202,-1.21689 -1.23047,-1.21689zM1.23047,12.75993c-0.09689,0 -0.17578,-0.07802 -0.17578,-0.17384v-4.17219c0,-0.09582 0.07889,-0.17384 0.17578,-0.17384h0.87891v4.51987zM12.23438,18.94868c0,0.55594 -0.45738,1.00828 -1.01953,1.00828h-2.8125c-0.56215,0 -1.01953,-0.45233 -1.01953,-1.00828v-16.89735c0,-0.55594 0.45738,-1.00828 1.01953,-1.00828h2.8125c0.56215,0 1.01953,0.45233 1.01953,1.00828zM28.61719,18.94868c0,0.55594 -0.45738,1.00828 -1.01953,1.00828h-2.8125c-0.56215,0 -1.01953,-0.45233 -1.01953,-1.00828v-16.89735c0,-0.55594 0.45738,-1.00828 1.01953,-1.00828h2.8125c0.56215,0 1.01953,0.45233 1.01953,1.00828zM34.94531,12.58609c0,0.09582 -0.07889,0.17384 -0.17578,0.17384h-0.87891v-4.51987h0.87891c0.09689,0 0.17578,0.07802 0.17578,0.17384z"/></defs></g></svg>