<?xml version="1.0" encoding="utf-8"?>
<!-- Svg Vector Icons : http://www.onlinewebfonts.com/icon -->
<!DOCTYPE svg PUBLIC "-//W3C//DTD SVG 1.1//EN" "http://www.w3.org/Graphics/SVG/1.1/DTD/svg11.dtd">
<svg version="1.1" xmlns="http://www.w3.org/2000/svg" xmlns:xlink="http://www.w3.org/1999/xlink" x="0px" y="0px" viewBox="0 0 1000 1000" enable-background="new 0 0 1000 1000" xml:space="preserve">
<metadata> Svg Vector Icons : http://www.onlinewebfonts.com/icon </metadata>
<g><path d="M947.3,317.1l-134.1,45.4V244.6c0-23.6-19.1-42.7-42.7-42.7H654.9H235H53.3c-23.6,0-42.7,19.1-42.7,42.7v352.3v133.8L10,755.4c0,23.6,19.1,42.7,42.7,42.7h486.2h231.5c23.6,0,42.7-19.1,42.7-42.7v-14.2v-67.6l134.1,45.4c23.6,0,42.7-19.1,42.7-42.7V359.8C990,336.2,970.9,317.1,947.3,317.1z M547.1,517.4L386,638.9c-3.7,2.8-8.2,4.2-12.7,4.2c-3.2,0-6.4-0.7-9.4-2.2c-7.1-3.5-11.7-10.9-11.7-18.8V386.4c0-7.9,4.4-15.1,11.4-18.7c6.9-3.6,15.4-3,21.8,1.5l161.1,114.1c5.5,3.9,8.8,10.2,8.9,16.9C555.5,507,552.4,513.3,547.1,517.4z"/></g>
</svg>