<?xml version="1.0" standalone="no"?>
<svg version="1.2" xmlns="http://www.w3.org/2000/svg" xmlns:xlink="http://www.w3.org/1999/xlink" overflow="visible" preserveAspectRatio="none" viewBox="0 0 36.99998275253855 35.99994179149693" width="36.99998275253855" height="35.99994179149693"><g transform="translate(0, 0)"><g transform="translate(-0.00001873128933995924, 0.0000016462208250586012) rotate(0)"><path style="stroke-width: 0px; stroke-linecap: butt; stroke-linejoin: miter; fill: rgb(255, 255, 255);" d="M36.82191,7.50355c-0.00085,-0.00084 -0.00177,-0.00175 -0.00262,-0.00259v0l-7.40071,-7.32199c-0.11772,-0.1183 -0.27976,-0.18297 -0.44743,-0.17878c-0.16744,0.00297 -0.3264,0.0733 -0.44027,0.19487l-2.29106,2.44066c-0.22349,0.23812 -0.21925,0.60773 0.00964,0.84073l0.17369,0.17672l-0.90967,0.89999l-1.43705,-0.35512c-1.28888,-0.3121 -2.64868,0.07002 -3.57932,1.00586l-2.62139,3.02253l-3.04601,-3.01361c-0.86835,-0.86399 -2.15723,-1.16519 -3.32454,-0.77705c-0.06969,0.02319 -0.13468,0.05827 -0.19211,0.10365l-0.16744,0.13347l-0.40596,-0.40157l0.79743,-0.78894c0.24083,-0.23812 0.24091,-0.62435 0.00023,-0.86255c-0.00008,-0.00008 -0.00015,-0.00015 -0.00023,-0.00023l-2.4669,-2.44066c-0.24068,-0.23827 -0.63106,-0.23835 -0.87182,-0.00023c-0.00008,0.00008 -0.00015,0.00015 -0.00023,0.00023l-8.01744,7.93216c-0.24083,0.23812 -0.24091,0.62435 -0.00023,0.86255c0.00008,0.00008 0.00015,0.00015 0.00023,0.00023l2.4669,2.44066c0.24068,0.23827 0.63106,0.23835 0.8719,0.00023c0.00008,-0.00008 0.00015,-0.00015 0.00023,-0.00023l0.27853,-0.27557l1.46141,1.44586l-0.35893,1.42176c-0.31484,1.25641 0.0552,2.58436 0.97628,3.50372l5.22413,5.31729v4.77005c0.01133,1.09365 0.6316,2.09188 1.61289,2.59557c0.52614,0.27702 0.85471,0.81892 0.85401,1.40864v0.12691h-0.61673c-0.34043,-0.00023 -0.61649,0.27267 -0.61673,0.60948c0,0.00023 0,0.00046 0,0.00069v3.05083c-0.00023,0.33681 0.2756,0.60994 0.61603,0.61017c0.00023,0 0.00046,0 0.00069,0h11.71779c0.34043,0.00023 0.61649,-0.27267 0.61673,-0.60948c0,-0.00023 0,-0.00046 0,-0.00069v-3.05083c0.00023,-0.33681 -0.2756,-0.60994 -0.61603,-0.61017c-0.00023,0 -0.00046,0 -0.00069,0h-0.61673v-0.61314l0.97751,-0.89199c0.93542,-0.70017 1.48639,-1.79259 1.48939,-2.95313v-7.14779c0.73028,-0.0868 1.40914,-0.41629 1.9255,-0.93455l3.26009,-3.5025c0.76636,-0.75272 1.03317,-1.87115 0.6878,-2.88341c-0.09883,-0.29425 0.4324,-1.25725 1.06532,-1.99578c0.11294,0.1109 0.26496,0.1742 0.42408,0.17657h0.00601c0.16235,0 0.31823,-0.06338 0.43364,-0.17641l2.4952,-2.44066c0.24214,-0.23674 0.24438,-0.6229 0.00501,-0.86247zM3.08369,10.1204l-1.59478,-1.57789l7.14531,-7.06938l1.59485,1.57781zM11.15578,21.13252l-4.40065,-4.47907c-0.61912,-0.61642 -0.86858,-1.50757 -0.65828,-2.35127l0.44389,-1.75659c0.05281,-0.20784 -0.00879,-0.4278 -0.16204,-0.5792l-1.70833,-1.69016l5.1973,-5.14202l0.79743,0.78894c0.22272,0.22019 0.57726,0.23919 0.82271,0.04408l0.50649,-0.4034c0.69983,-0.19358 1.45085,0.00221 1.96342,0.51185l3.3997,3.36354l-0.00586,0.00435c-0.27514,0.25009 -0.4802,0.56646 -0.59506,0.91822c-0.38222,-0.20494 -0.81778,-0.29151 -1.25033,-0.24849c-1.11943,0.14446 -1.95232,1.09502 -1.93814,2.21185v6.38111c-1.22659,0.25055 -2.1792,1.20866 -2.41225,2.42625zM24.05237,34.77964h-10.48434v-1.8305h10.48434zM25.28582,27.27056c-0.00717,0.79749 -0.39424,1.54486 -1.04435,2.01645l-1.2232,1.11187c-0.12712,0.11555 -0.19943,0.27854 -0.19936,0.44931v0.8807h-8.01744v-0.12691c0.00139,-1.04071 -0.57864,-1.997 -1.50751,-2.48536c-0.57872,-0.29227 -0.94752,-0.8762 -0.95939,-1.51886v-5.90206c0.00239,-0.77316 0.49631,-1.46119 1.23345,-1.71807v3.8191h1.23345v-11.47165c-0.01889,-0.49172 0.33635,-0.91998 0.82749,-0.99747c0.26165,-0.02669 0.52252,0.05751 0.71795,0.23179c0.19496,0.17268 0.3059,0.41972 0.30474,0.67866v9.11794h1.23345v-10.33827c-0.00039,-0.50529 0.41336,-0.91517 0.92409,-0.91555c0.02852,0 0.05697,0.0013 0.08534,0.00381c0.49947,0.08237 0.85941,0.51887 0.84075,1.01951v10.23042h1.23345v-8.50769c-0.00039,-0.50529 0.41336,-0.91517 0.92409,-0.91555c0.02852,0 0.05697,0.0013 0.08534,0.00381c0.49947,0.08237 0.85941,0.51887 0.84075,1.01951v8.39992h1.23345v-5.03944c0.73714,0.25688 1.23106,0.94492 1.23345,1.71807zM31.22297,13.18847v0c0.19589,0.58256 0.03747,1.2246 -0.40773,1.65233l-3.26009,3.5025c-0.28208,0.28205 -0.64271,0.47433 -1.03595,0.55235v-0.86102c-0.00193,-1.44914 -1.03225,-2.6977 -2.4669,-2.98943v-2.08913c0.02166,-1.13422 -0.82857,-2.10027 -1.96705,-2.23511c-0.38669,-0.03219 -0.77515,0.03775 -1.12568,0.20258c-0.07262,-1.05574 -0.89564,-1.91028 -1.95795,-2.03307c-0.02621,-0.00221 -0.05204,0.00267 -0.07825,0.00145l2.4777,-2.85916c0.62312,-0.6123 1.52378,-0.85911 2.37655,-0.65128l1.77548,0.43917c0.21007,0.05209 0.43232,-0.00877 0.58543,-0.16032l1.14441,-1.13224l5.31387,5.40645c-0.56924,0.65334 -1.73863,2.17166 -1.37383,3.25394zM33.89655,9.50658l-6.35405,-6.46516l1.45632,-1.55226l6.50993,6.44068z"/></g><defs><path id="path-159110872310395" d="M36.82191,7.50355c-0.00085,-0.00084 -0.00177,-0.00175 -0.00262,-0.00259v0l-7.40071,-7.32199c-0.11772,-0.1183 -0.27976,-0.18297 -0.44743,-0.17878c-0.16744,0.00297 -0.3264,0.0733 -0.44027,0.19487l-2.29106,2.44066c-0.22349,0.23812 -0.21925,0.60773 0.00964,0.84073l0.17369,0.17672l-0.90967,0.89999l-1.43705,-0.35512c-1.28888,-0.3121 -2.64868,0.07002 -3.57932,1.00586l-2.62139,3.02253l-3.04601,-3.01361c-0.86835,-0.86399 -2.15723,-1.16519 -3.32454,-0.77705c-0.06969,0.02319 -0.13468,0.05827 -0.19211,0.10365l-0.16744,0.13347l-0.40596,-0.40157l0.79743,-0.78894c0.24083,-0.23812 0.24091,-0.62435 0.00023,-0.86255c-0.00008,-0.00008 -0.00015,-0.00015 -0.00023,-0.00023l-2.4669,-2.44066c-0.24068,-0.23827 -0.63106,-0.23835 -0.87182,-0.00023c-0.00008,0.00008 -0.00015,0.00015 -0.00023,0.00023l-8.01744,7.93216c-0.24083,0.23812 -0.24091,0.62435 -0.00023,0.86255c0.00008,0.00008 0.00015,0.00015 0.00023,0.00023l2.4669,2.44066c0.24068,0.23827 0.63106,0.23835 0.8719,0.00023c0.00008,-0.00008 0.00015,-0.00015 0.00023,-0.00023l0.27853,-0.27557l1.46141,1.44586l-0.35893,1.42176c-0.31484,1.25641 0.0552,2.58436 0.97628,3.50372l5.22413,5.31729v4.77005c0.01133,1.09365 0.6316,2.09188 1.61289,2.59557c0.52614,0.27702 0.85471,0.81892 0.85401,1.40864v0.12691h-0.61673c-0.34043,-0.00023 -0.61649,0.27267 -0.61673,0.60948c0,0.00023 0,0.00046 0,0.00069v3.05083c-0.00023,0.33681 0.2756,0.60994 0.61603,0.61017c0.00023,0 0.00046,0 0.00069,0h11.71779c0.34043,0.00023 0.61649,-0.27267 0.61673,-0.60948c0,-0.00023 0,-0.00046 0,-0.00069v-3.05083c0.00023,-0.33681 -0.2756,-0.60994 -0.61603,-0.61017c-0.00023,0 -0.00046,0 -0.00069,0h-0.61673v-0.61314l0.97751,-0.89199c0.93542,-0.70017 1.48639,-1.79259 1.48939,-2.95313v-7.14779c0.73028,-0.0868 1.40914,-0.41629 1.9255,-0.93455l3.26009,-3.5025c0.76636,-0.75272 1.03317,-1.87115 0.6878,-2.88341c-0.09883,-0.29425 0.4324,-1.25725 1.06532,-1.99578c0.11294,0.1109 0.26496,0.1742 0.42408,0.17657h0.00601c0.16235,0 0.31823,-0.06338 0.43364,-0.17641l2.4952,-2.44066c0.24214,-0.23674 0.24438,-0.6229 0.00501,-0.86247zM3.08369,10.1204l-1.59478,-1.57789l7.14531,-7.06938l1.59485,1.57781zM11.15578,21.13252l-4.40065,-4.47907c-0.61912,-0.61642 -0.86858,-1.50757 -0.65828,-2.35127l0.44389,-1.75659c0.05281,-0.20784 -0.00879,-0.4278 -0.16204,-0.5792l-1.70833,-1.69016l5.1973,-5.14202l0.79743,0.78894c0.22272,0.22019 0.57726,0.23919 0.82271,0.04408l0.50649,-0.4034c0.69983,-0.19358 1.45085,0.00221 1.96342,0.51185l3.3997,3.36354l-0.00586,0.00435c-0.27514,0.25009 -0.4802,0.56646 -0.59506,0.91822c-0.38222,-0.20494 -0.81778,-0.29151 -1.25033,-0.24849c-1.11943,0.14446 -1.95232,1.09502 -1.93814,2.21185v6.38111c-1.22659,0.25055 -2.1792,1.20866 -2.41225,2.42625zM24.05237,34.77964h-10.48434v-1.8305h10.48434zM25.28582,27.27056c-0.00717,0.79749 -0.39424,1.54486 -1.04435,2.01645l-1.2232,1.11187c-0.12712,0.11555 -0.19943,0.27854 -0.19936,0.44931v0.8807h-8.01744v-0.12691c0.00139,-1.04071 -0.57864,-1.997 -1.50751,-2.48536c-0.57872,-0.29227 -0.94752,-0.8762 -0.95939,-1.51886v-5.90206c0.00239,-0.77316 0.49631,-1.46119 1.23345,-1.71807v3.8191h1.23345v-11.47165c-0.01889,-0.49172 0.33635,-0.91998 0.82749,-0.99747c0.26165,-0.02669 0.52252,0.05751 0.71795,0.23179c0.19496,0.17268 0.3059,0.41972 0.30474,0.67866v9.11794h1.23345v-10.33827c-0.00039,-0.50529 0.41336,-0.91517 0.92409,-0.91555c0.02852,0 0.05697,0.0013 0.08534,0.00381c0.49947,0.08237 0.85941,0.51887 0.84075,1.01951v10.23042h1.23345v-8.50769c-0.00039,-0.50529 0.41336,-0.91517 0.92409,-0.91555c0.02852,0 0.05697,0.0013 0.08534,0.00381c0.49947,0.08237 0.85941,0.51887 0.84075,1.01951v8.39992h1.23345v-5.03944c0.73714,0.25688 1.23106,0.94492 1.23345,1.71807zM31.22297,13.18847v0c0.19589,0.58256 0.03747,1.2246 -0.40773,1.65233l-3.26009,3.5025c-0.28208,0.28205 -0.64271,0.47433 -1.03595,0.55235v-0.86102c-0.00193,-1.44914 -1.03225,-2.6977 -2.4669,-2.98943v-2.08913c0.02166,-1.13422 -0.82857,-2.10027 -1.96705,-2.23511c-0.38669,-0.03219 -0.77515,0.03775 -1.12568,0.20258c-0.07262,-1.05574 -0.89564,-1.91028 -1.95795,-2.03307c-0.02621,-0.00221 -0.05204,0.00267 -0.07825,0.00145l2.4777,-2.85916c0.62312,-0.6123 1.52378,-0.85911 2.37655,-0.65128l1.77548,0.43917c0.21007,0.05209 0.43232,-0.00877 0.58543,-0.16032l1.14441,-1.13224l5.31387,5.40645c-0.56924,0.65334 -1.73863,2.17166 -1.37383,3.25394zM33.89655,9.50658l-6.35405,-6.46516l1.45632,-1.55226l6.50993,6.44068z"/></defs></g></svg>