<?xml version="1.0" standalone="no"?>
<svg version="1.2" xmlns="http://www.w3.org/2000/svg" xmlns:xlink="http://www.w3.org/1999/xlink" overflow="visible" preserveAspectRatio="none" viewBox="0 0 32.99999 30.999990000000004" width="32.99999" height="30.999990000000004"><g transform="translate(0, 0)"><g transform="translate(-1.7763568394002505e-15, 4.440892098500626e-16) rotate(0)"><path style="stroke-width: 0px; stroke-linecap: butt; stroke-linejoin: miter; fill: rgb(255, 255, 255);" d="M30.58301,0h-28.16602c-1.33276,0 -2.41699,1.09786 -2.41699,2.44737v21.53684c0,1.34951 1.08423,2.44737 2.41699,2.44737h10.31617l-0.58182,2.06192c-0.23364,0.82806 -1.14952,1.52755 -1.99998,1.52755h-3.6416c-0.26696,0 -0.4834,0.21909 -0.4834,0.48947c0,0.27039 0.21643,0.48947 0.4834,0.48947h19.98047c0.26696,0 0.4834,-0.21909 0.4834,-0.48947c0,-0.27039 -0.21643,-0.48947 -0.4834,-0.48947h-3.6416c-0.85046,0 -1.76634,-0.69956 -1.99998,-1.52755l-0.58182,-2.06192h10.31617c1.33276,0 2.41699,-1.09786 2.41699,-2.44737v-21.53684c0,-1.34951 -1.08423,-2.44737 -2.41699,-2.44737zM2.41699,0.97895h28.16602c0.79967,0 1.4502,0.65877 1.4502,1.46842v17.13158h-31.06641v-17.13158c0,-0.80965 0.65053,-1.46842 1.4502,-1.46842zM19.91904,28.76245c0.13264,0.47022 0.39632,0.9022 0.74198,1.2586h-8.32206c0.34566,-0.3564 0.60934,-0.78844 0.74198,-1.2586l0.65768,-2.33087h5.52267zM30.58301,25.45263h-28.16602c-0.79967,0 -1.4502,-0.65877 -1.4502,-1.46842v-3.42632h31.06641v3.42632c0,0.80965 -0.65053,1.46842 -1.4502,1.46842z"/></g><defs><path id="path-159110872282444" d="M30.58301,0h-28.16602c-1.33276,0 -2.41699,1.09786 -2.41699,2.44737v21.53684c0,1.34951 1.08423,2.44737 2.41699,2.44737h10.31617l-0.58182,2.06192c-0.23364,0.82806 -1.14952,1.52755 -1.99998,1.52755h-3.6416c-0.26696,0 -0.4834,0.21909 -0.4834,0.48947c0,0.27039 0.21643,0.48947 0.4834,0.48947h19.98047c0.26696,0 0.4834,-0.21909 0.4834,-0.48947c0,-0.27039 -0.21643,-0.48947 -0.4834,-0.48947h-3.6416c-0.85046,0 -1.76634,-0.69956 -1.99998,-1.52755l-0.58182,-2.06192h10.31617c1.33276,0 2.41699,-1.09786 2.41699,-2.44737v-21.53684c0,-1.34951 -1.08423,-2.44737 -2.41699,-2.44737zM2.41699,0.97895h28.16602c0.79967,0 1.4502,0.65877 1.4502,1.46842v17.13158h-31.06641v-17.13158c0,-0.80965 0.65053,-1.46842 1.4502,-1.46842zM19.91904,28.76245c0.13264,0.47022 0.39632,0.9022 0.74198,1.2586h-8.32206c0.34566,-0.3564 0.60934,-0.78844 0.74198,-1.2586l0.65768,-2.33087h5.52267zM30.58301,25.45263h-28.16602c-0.79967,0 -1.4502,-0.65877 -1.4502,-1.46842v-3.42632h31.06641v3.42632c0,0.80965 -0.65053,1.46842 -1.4502,1.46842z"/></defs></g></svg>